<?xml version="1.0" encoding="iso-8859-1"?>
<!-- Uploaded to: SVG Repo, www.svgrepo.com, Generator: SVG Repo Mixer Tools -->
<svg fill="#000000" height="800px" width="800px" version="1.1" id="Layer_1" xmlns="http://www.w3.org/2000/svg" xmlns:xlink="http://www.w3.org/1999/xlink" 
	 viewBox="0 0 511.998 511.998" xml:space="preserve">
<g>
	<g>
		<path d="M509.345,232.746c-4.424-30.846-13.584-55.671-27.227-73.787c-2.72-3.609-7.849-4.334-11.462-1.614
			c-3.611,2.72-4.334,7.851-1.614,11.462c21.982,29.187,25.87,74.283,26.475,94.12l-35.824-8.123
			c-2.465-0.558-5.053,0.053-7.007,1.66l-21.456,17.637l-34.876-7.612c-2.724-0.593-5.564,0.239-7.535,2.211l-26.442,26.457
			l-3.014-15.672c-4.077-21.173-14.315-40.019-28.916-54.605c2.158-15.895,7.347-36.892,19.708-53.857
			c15.687-21.528,39.492-31.228,70.719-28.844c12.176,0.931,23.039,4.664,32.289,11.097c3.713,2.58,8.813,1.663,11.393-2.047
			c2.581-3.711,1.664-8.812-2.046-11.393c-11.676-8.12-25.265-12.823-40.388-13.979c-37.281-2.857-65.942,9.104-85.197,35.525
			c-11.807,16.203-17.915,35.186-21.062,51.36c-4.884-3.365-10.078-6.33-15.544-8.855c14.382-13.176,23.507-32.618,23.507-54.285
			c0-39.593-30.427-71.803-67.825-71.803s-67.825,32.211-67.825,71.803c0,21.667,9.126,41.11,23.509,54.285
			c-30.481,14.086-52.553,41.902-59.044,75.6l-3.013,15.668L123.188,268.7c-1.972-1.972-4.812-2.805-7.535-2.211l-34.877,7.612
			l-21.46-17.637c-1.955-1.606-4.542-2.218-7.008-1.66l-35.831,8.125c0.359-12.064,1.931-33.464,8.06-54.918
			c11.771-41.202,34.175-63.351,66.591-65.83c43.4-3.315,72.055,16.402,85.173,58.607c1.341,4.316,5.929,6.729,10.247,5.387
			c4.316-1.341,6.728-5.929,5.387-10.246c-6.585-21.188-17.009-37.968-30.979-49.871c-18.316-15.607-42.216-22.405-71.075-20.2
			c-39.498,3.02-67.572,29.999-81.188,78.021c-9.869,34.809-8.676,68.225-8.62,69.631c0.096,2.43,1.268,4.692,3.199,6.172
			c1.93,1.48,4.42,2.024,6.79,1.487l41.959-9.514l21.425,17.611c1.936,1.591,4.497,2.207,6.943,1.674l34.383-7.504l31.122,31.14
			l-11.048,57.448c-0.853,4.44,2.053,8.731,6.492,9.584c0.523,0.1,1.041,0.148,1.554,0.148c3.846,0,7.276-2.724,8.029-6.641
			l17.795-92.535c6.132-31.839,28.73-57.473,59.321-67.591c6.161,2.965,12.807,4.98,19.781,5.872v258.315H130.906l14.677-76.321
			c0.853-4.44-2.053-8.731-6.492-9.584c-4.442-0.852-8.73,2.053-9.583,6.492l-16.549,86.052c-0.461,2.398,0.172,4.876,1.728,6.759
			c1.555,1.883,3.869,2.973,6.31,2.973h270.008c2.441,0,4.755-1.09,6.31-2.973s2.188-4.361,1.728-6.759l-32.933-171.24
			l31.123-31.141l34.382,7.504c2.45,0.534,5.008-0.082,6.943-1.674l21.425-17.611l41.959,9.514c2.37,0.537,4.861-0.007,6.79-1.487
			c1.931-1.48,3.103-3.741,3.199-6.172C511.958,272.783,512.596,255.427,509.345,232.746z M204.545,149.602
			c0-30.566,23.082-55.432,51.455-55.432s51.454,24.867,51.454,55.432s-23.082,55.432-51.454,55.432
			S204.545,180.168,204.545,149.602z M381.095,479.178H264.184V220.863c6.973-0.893,13.62-2.907,19.781-5.872
			c30.594,10.118,53.191,35.752,59.32,67.589L381.095,479.178z"/>
	</g>
</g>
<g>
	<g>
		<path d="M255.999,16.45c-2.784,0-5.583,0.069-8.323,0.206c-4.516,0.226-7.992,4.069-7.766,8.583
			c0.225,4.515,4.052,7.979,8.582,7.766c2.469-0.123,4.994-0.185,7.506-0.185c24.476,0,39.096,5.553,42.971,8.731
			c-3.875,3.178-18.496,8.731-42.971,8.731c-24.414,0-39.023-5.525-42.942-8.707c1.278-1.024,3.958-2.615,8.826-4.204
			c4.298-1.402,6.645-6.022,5.243-10.32c-1.401-4.298-6.021-6.647-10.32-5.243c-17.216,5.617-20.83,13.837-20.83,19.742
			c0,17.339,30.147,25.101,60.024,25.101s60.024-7.762,60.024-25.101C316.023,24.211,285.876,16.45,255.999,16.45z"/>
	</g>
</g>
<g>
	<g>
		<circle cx="285.471" cy="432.791" r="8.185"/>
	</g>
</g>
<g>
	<g>
		<circle cx="226.539" cy="432.791" r="8.185"/>
	</g>
</g>
<g>
	<g>
		<circle cx="285.471" cy="375.245" r="8.185"/>
	</g>
</g>
<g>
	<g>
		<circle cx="226.539" cy="375.245" r="8.185"/>
	</g>
</g>
<g>
	<g>
		<circle cx="285.471" cy="318.572" r="8.185"/>
	</g>
</g>
<g>
	<g>
		<circle cx="226.539" cy="318.572" r="8.185"/>
	</g>
</g>
<g>
	<g>
		<circle cx="285.471" cy="261.451" r="8.185"/>
	</g>
</g>
<g>
	<g>
		<circle cx="226.539" cy="261.451" r="8.185"/>
	</g>
</g>
<g>
	<g>
		<circle cx="278.639" cy="142.244" r="8.185"/>
	</g>
</g>
<g>
	<g>
		<circle cx="233.349" cy="142.244" r="8.185"/>
	</g>
</g>
</svg>