<svg xmlns="http://www.w3.org/2000/svg" xml:space="preserve" viewBox="0 0 1024 1024"><path d="M449.691 643.417c-15.924-10.144-21.355-17.265-37.443-49.057-7.27 4.996-14.481 9.938-21.679 14.9-18.238 12.574-36.448 25.187-54.715 37.72-6.56 4.5-13.03 3.17-17.197-3.377-16.332-25.666-30.397-52.45-39.83-81.482-7.008-21.568-11.676-43.623-14.306-66.18-1.937-16.613-2.357-33.252-1.739-49.877 1.866-50.163 14.356-97.568 38.228-141.837 10.63-19.714 23.027-38.235 37.864-55.07.76-.862 1.358-1.868 2.223-3.074-3.303-2.522-7.247-2.637-10.832-3.421-51.332-11.221-102.692-22.313-154.045-33.435-4.792-1.038-8.987-2.94-10.326-8.201-2.009-7.894 2.605-13.64 10.832-13.331 7.198.27 14.04 2.675 21.01 4.197 51.016 11.142 102.02 22.345 152.934 33.941 6.142 1.4 9.89.296 14.37-3.963 45.963-43.692 100.407-70.566 162.872-81.324 28.365-4.886 56.906-6.458 85.547-3.724 81.934 7.823 151.315 41.77 208.42 100.962 9.96 10.326 19.387 21.118 27.724 32.796 6.48 9.078 5.005 15.978-4.114 22.343-22.95 16.018-45.852 32.102-68.783 48.146-1.801 1.26-3.59 2.401-3.448 5.04 1.39 25.744 2.082 51.612 12.504 75.85 4.429 10.3 10.79 19.512 16.767 28.94 7.588 11.966 15.004 24.059 19.34 37.677 1.82 5.715 2.749 11.554 1.58 17.685-2.375 12.455-9.662 20.613-21.309 24.909-3.149 1.161-4.497 2.292-4.013 5.926 1.537 11.525 2.62 23.11 3.992 34.658.946 7.971-.1 15.084-7.912 19.372-3.357 1.843-2.71 3.776-.96 6.431 4.979 7.55 9.235 15.468 10.069 24.706 1.397 15.472-5.628 26.943-17.422 36.048-9.069 7.001-19.893 9.897-30.664 12.847-9.307 2.549-18.67 4.897-27.977 7.441-9.397 2.57-12.991 7.624-14.064 17.582-2.4 22.278 1.883 43.008 13.276 62.308 5.328 9.027 12.561 16.323 20.321 23.212 9.895 8.783 18.86 18.37 25.034 30.243 1.691 3.253 3.034 6.613 3.851 10.24 1.082 4.797-.378 8.691-3.946 11.601-3.704 3.02-7.967 3.032-12.163.694-5.82-3.243-11.571-6.61-17.45-9.74-37.984-20.216-78.61-32.56-120.74-40.397-31.432-5.847-63.118-9.716-94.99-12.124-5.641-.426-11.304-.697-16.91-1.405-6.767-.856-10.226-4.17-10.852-9.747-.73-6.511 1.313-10.023 8.01-12.63 11.93-4.647 23.094-10.4 31.599-20.333 15.182-17.73 21.306-38.54 20.247-61.52-.45-9.75-5.004-13.179-14.936-13.304-17.167-.216-34.283 1.496-51.46 1.098-14.901-.346-29.077-3.156-42.389-10.96M290.156 503.59c4.906 36.252 17.06 70.04 34.675 101.968 2.379 4.313 4.886 8.554 7.428 12.993 1.48-.818 2.384-1.22 3.184-1.775 14.235-9.875 28.44-19.795 42.686-29.654 71.231-49.3 142.572-98.442 213.684-147.913 75.625-52.612 151.025-105.546 226.58-158.257 3.052-2.129 3.533-3.604 1.084-6.622-13.06-16.095-27.352-30.985-43.344-44.153-49.296-40.59-105.903-63.776-169.484-68.574-40.35-3.044-80.127 1.518-118.53 15.269-85.765 30.71-146.295 87.963-180.701 172.384-10.665 26.166-16.89 53.552-19.25 81.767-2.005 23.969-1.776 47.874 1.988 72.567m436.446-127.443c-32.544 22.63-65.064 45.294-97.636 67.884-49.543 34.36-99.12 68.672-148.685 103-14.375 9.956-28.779 19.872-43.118 29.88-1.778 1.241-4.4 2.17-3.399 5.34 8.44 26.724 24.63 47.957 57.07 48.52 17.337.302 34.632-.747 51.949-.995 27.1-.389 37.93 16.013 39.386 37.61 1.57 23.304-4.866 44.78-17.047 64.612-3.991 6.499-9.161 12.077-14.733 18.61 57.161 5.016 112.422 14.953 166.455 36.705-1.157-2.139-1.388-2.76-1.777-3.258-21.282-27.24-29.274-58.138-25.379-92.289 2.027-17.77 10.894-30.076 28.557-35.14 7.194-2.062 14.459-3.877 21.664-5.903 10.228-2.876 20.79-4.811 30.101-10.349 9.267-5.51 11.795-14.446 6.598-23.82-2.258-4.073-5.069-7.846-7.229-11.964-4.895-9.33-3.951-20.315 3.402-26.162 5.347-4.25 5.128-8.71 4.387-14.392-1.764-13.51-3.303-27.062-4.38-40.642-.602-7.586 4.04-12.116 11.636-12.692 1.987-.15 4.026-.014 5.96-.409 7.508-1.532 10.199-5.532 8.328-12.883-2.791-10.969-8.666-20.497-14.723-29.88-8.497-13.165-16.918-26.348-22.315-41.197-6.947-19.112-9.084-39.104-10.995-59.145-.198-2.07.44-4.362-1.872-6.357-7.173 4.942-14.398 9.918-22.205 15.316"/><path d="M493.869 201.712c33.76-12.23 68.176-18.501 103.71-16.888 55.228 2.507 105.27 19.988 149.64 53.271 10.428 7.822 20.072 16.494 29.234 25.73 1.285 1.294 2.55 2.658 3.554 4.17 1.847 2.783 1.946 5.757-.357 8.295-2.498 2.752-5.621 2.596-8.672.932-1.14-.622-2.137-1.58-3.057-2.524-37.944-38.891-83.659-63.45-137.092-72.94-45.93-8.158-90.856-3.45-134.465 13.282-17.802 6.83-34.637 15.496-50.494 26.104-4.384 2.933-7.91 2.43-10.105-.812-2.254-3.332-1.202-7.524 2.649-10.394 1.067-.796 2.2-1.505 3.32-2.228 16.307-10.521 33.641-18.988 52.135-25.998"/></svg>