<?xml version="1.0" encoding="iso-8859-1"?>
<!-- Uploaded to: SVG Repo, www.svgrepo.com, Generator: SVG Repo Mixer Tools -->
<!DOCTYPE svg PUBLIC "-//W3C//DTD SVG 1.1//EN" "http://www.w3.org/Graphics/SVG/1.1/DTD/svg11.dtd">
<svg fill="#000000" height="800px" width="800px" version="1.1" id="Capa_1" xmlns="http://www.w3.org/2000/svg" xmlns:xlink="http://www.w3.org/1999/xlink" 
	 viewBox="0 0 386.143 386.143" xml:space="preserve">
<path d="M293.071,57.795h-18.895c-5.522,0-10,4.478-10,10v1.404c0,2.276-0.401,4.456-1.105,6.497V46c0-5.522-4.477-10-10-10h-30h-30
	h-20V10c0-5.522-4.478-10-10-10h-30c-5.522,0-10,4.478-10,10v65.696c-0.703-2.041-1.104-4.221-1.104-6.497v-1.404
	c0-5.522-4.477-10-10-10H93.071c-5.522,0-10,4.478-10,10v286.543c0,17.537,14.266,31.805,31.801,31.805h156.398
	c17.535,0,31.801-14.268,31.801-31.805V67.795C303.071,62.272,298.594,57.795,293.071,57.795z M243.071,86.398h-10V56h10V86.398z
	 M213.071,86.398h-10V56h10V86.398z M183.071,56v30.398h-10V56H183.071z M143.071,20h10v26v40.398h-10V20z M141.967,109.199h102.209
	c18.836,0,34.673-13.086,38.895-30.646v151.305l-83.391-73.415c-3.777-3.326-9.438-3.324-13.215,0l-83.395,73.415V78.554
	C107.294,96.113,123.131,109.199,141.967,109.199z M271.271,366.143H114.872c-6.507,0-11.801-5.296-11.801-11.805v-97.834
	l90.002-79.231l89.998,79.231v97.834C283.071,360.847,277.777,366.143,271.271,366.143z"/>
</svg>