<?xml version="1.0" ?>
<!DOCTYPE svg  PUBLIC '-//W3C//DTD SVG 1.1//EN'  'http://www.w3.org/Graphics/SVG/1.1/DTD/svg11.dtd'>
<!-- Uploaded to: SVG Repo, www.svgrepo.com, Generator: SVG Repo Mixer Tools -->
<svg fill="#000000" width="800px" height="800px" viewBox="0 0 64 64" enable-background="new 0 0 64 64" version="1.1" xml:space="preserve" xmlns="http://www.w3.org/2000/svg" xmlns:xlink="http://www.w3.org/1999/xlink">
<g id="_x31_-smartphone"/>
<g id="_x32_-smartTV"/>
<g id="_x33_-telepon"/>
<g id="_x34_-computer"/>
<g id="_x35_-kalkulator"/>
<g id="_x36_-radio"/>
<g id="_x37_-hadset"/>
<g id="_x38_-usbflashdisk"/>
<g id="_x39_-camera"/>
<g id="_x31_0-printer"/>
<g id="_x31_1-powerbank"/>
<g id="_x31_2-kulkas"/>
<g id="_x31_3-modem"/>
<g id="_x31_4-tablet"/>
<g id="_x31_5-gamebot">
<g>
<path d="M42,3H11v58h42V14C53,7.935,48.065,3,42,3z M51,59H13V5h29c4.963,0,9,4.038,9,9V59z"/>
<path d="M15,33h34V11H15V33z M17,13h30v18H17V13z"/>
<rect height="1" width="21" x="21.5" y="7.5"/>
<path d="M45.5,38c-1.93,0-3.5,1.57-3.5,3.5s1.57,3.5,3.5,3.5s3.5-1.57,3.5-3.5S47.43,38,45.5,38z M45.5,43    c-0.827,0-1.5-0.673-1.5-1.5s0.673-1.5,1.5-1.5s1.5,0.673,1.5,1.5S46.327,43,45.5,43z"/>
<path d="M38.5,45c-1.93,0-3.5,1.57-3.5,3.5s1.57,3.5,3.5,3.5s3.5-1.57,3.5-3.5S40.43,45,38.5,45z M38.5,50    c-0.827,0-1.5-0.673-1.5-1.5s0.673-1.5,1.5-1.5s1.5,0.673,1.5,1.5S39.327,50,38.5,50z"/>
<rect height="9" width="2" x="20" y="41"/>
<rect height="2" width="3" x="16" y="44"/>
<rect height="2" width="3" x="23" y="44"/>
</g>
</g>
<g id="_x31_6-wasing_machine"/>
<g id="_x31_7-handdryer"/>
<g id="_x31_8-blender"/>
<g id="_x31_9-controller"/>
<g id="_x32_0-michrophone"/>
<g id="_x32_1-lamp"/>
</svg>