<?xml version="1.0" encoding="iso-8859-1"?>
<!-- Uploaded to: SVG Repo, www.svgrepo.com, Generator: SVG Repo Mixer Tools -->
<!DOCTYPE svg PUBLIC "-//W3C//DTD SVG 1.1//EN" "http://www.w3.org/Graphics/SVG/1.1/DTD/svg11.dtd">
<svg fill="#000000" height="800px" width="800px" version="1.1" id="Capa_1" xmlns="http://www.w3.org/2000/svg" xmlns:xlink="http://www.w3.org/1999/xlink" 
	 viewBox="0 0 347.035 347.035" xml:space="preserve">
<path d="M298.347,76.346c-4.597-24.637-16.871-51.067-33.674-72.513C262.778,1.413,259.875,0,256.802,0H90.228
	c-3.073,0-5.976,1.413-7.871,3.832C65.552,25.28,53.28,51.71,48.686,76.347c-5.759,30.887,1.224,59.282,20.193,82.115
	c21.415,25.778,56.269,41.98,94.638,44.394v124.18h-34.048c-5.523,0-10,4.479-10,10c0,5.523,4.477,10,10,10h88.096
	c5.523,0,10-4.477,10-10c0-5.521-4.477-10-10-10h-34.048v-124.18c38.371-2.414,73.227-18.621,94.644-44.403
	C297.128,135.619,304.108,107.227,298.347,76.346z M95.194,20h156.642c13.387,18.242,23.091,39.866,26.85,60.014
	c0.143,0.764,0.275,1.525,0.398,2.285c-4.221-1.861-7.556-4.827-11.527-8.376c-7.756-6.932-17.408-15.559-35.788-15.559
	c-18.38,0-28.032,8.627-35.789,15.559c-6.801,6.079-11.716,10.471-22.46,10.471c-10.745,0-15.659-4.392-22.46-10.471
	c-7.756-6.932-17.408-15.559-35.788-15.559c-18.381,0-28.035,8.627-35.792,15.559c-3.973,3.55-7.309,6.517-11.532,8.377
	c0.123-0.76,0.256-1.522,0.398-2.287C72.103,59.866,81.807,38.243,95.194,20z M262.776,145.672
	c-19.218,23.136-53.421,37.507-89.26,37.507c-35.838,0-70.038-14.368-89.254-37.499c-10.165-12.236-15.968-26.572-17.238-42.249
	c12.14-2.428,19.576-9.049,25.784-14.597c6.803-6.079,11.718-10.472,22.464-10.472c10.744,0,15.658,4.392,22.46,10.471
	c7.756,6.932,17.409,15.559,35.788,15.559s28.032-8.627,35.789-15.559c6.801-6.079,11.716-10.471,22.461-10.471
	c10.744,0,15.658,4.392,22.459,10.471c6.207,5.548,13.643,12.17,25.781,14.598C278.741,119.104,272.939,133.438,262.776,145.672z"/>
</svg>