<?xml version="1.0" ?><!DOCTYPE svg  PUBLIC '-//W3C//DTD SVG 1.1//EN'  'http://www.w3.org/Graphics/SVG/1.1/DTD/svg11.dtd'><!-- Uploaded to: SVG Repo, www.svgrepo.com, Generator: SVG Repo Mixer Tools -->
<svg fill="#000000" width="800px" height="800px" viewBox="0 0 32 32" style="fill-rule:evenodd;clip-rule:evenodd;stroke-linejoin:round;stroke-miterlimit:2;" version="1.1" xml:space="preserve" xmlns="http://www.w3.org/2000/svg" xmlns:serif="http://www.serif.com/" xmlns:xlink="http://www.w3.org/1999/xlink"><path d="M15.003,14.98l-2.011,-0c-0.552,-0 -1,0.448 -1,1c-0,0.552 0.448,1 1,1l2.011,-0l0,2.011c0,0.552 0.448,1 1,1c0.552,0 1,-0.448 1,-1l0,-2.011l2.012,-0c0.552,-0 1,-0.448 1,-1c-0,-0.552 -0.448,-1 -1,-1l-2.012,-0l0,-2.012c0,-0.552 -0.448,-1 -1,-1c-0.552,0 -1,0.448 -1,1l0,2.012Z"/><path d="M2.003,4.981l0,17.999c0,0.795 0.316,1.558 0.879,2.121c0.562,0.563 1.326,0.879 2.121,0.879l22,-0c0.796,-0 1.559,-0.316 2.121,-0.879c0.563,-0.563 0.879,-1.326 0.879,-2.121l0,-14c0,-0.796 -0.316,-1.559 -0.879,-2.122c-0.562,-0.562 -1.325,-0.878 -2.121,-0.878l-11.052,-0l-2.613,-2.93c-0.598,-0.671 -1.491,-1.069 -2.438,-1.069c-1.391,-0 -3.896,-0 -5.712,-0c-0.834,-0 -1.631,0.308 -2.22,0.848c-0.623,0.57 -0.965,1.346 -0.965,2.152Zm26,3.999l0,14c0,0.265 -0.105,0.519 -0.293,0.707c-0.187,0.187 -0.442,0.293 -0.707,0.293c0,-0 -22,-0 -22,-0c-0.265,-0 -0.519,-0.106 -0.707,-0.293c-0.187,-0.188 -0.293,-0.442 -0.293,-0.707l0,-15c0,-0 23,-0 23,-0c0.265,-0 0.52,0.105 0.707,0.293c0.188,0.187 0.293,0.442 0.293,0.707Zm-14.732,-3l-1.425,-1.599c-0.231,-0.259 -0.581,-0.4 -0.946,-0.4l-5.712,-0c-0.326,-0 -0.64,0.112 -0.87,0.323c-0.197,0.18 -0.315,0.422 -0.315,0.677l0,0.999l9.268,-0Z"/></svg>