<?xml version="1.0" ?>
<!-- Uploaded to: SVG Repo, www.svgrepo.com, Generator: SVG Repo Mixer Tools -->
<svg fill="#000000" width="800px" height="800px" viewBox="0 0 64 64" xmlns="http://www.w3.org/2000/svg">
<title/>
<g id="Mic">
<path d="M20,50.45a1,1,0,0,1-.71-.3L13.64,44.5a1,1,0,0,1,0-1.42L34.86,21.87a1,1,0,0,1,1.41,0l5.66,5.66a1,1,0,0,1,.29.7,1,1,0,0,1-.29.71L20.72,50.15A1,1,0,0,1,20,50.45Zm-4.24-6.66L20,48l19.8-19.8L35.56,24Z"/>
<path d="M45.46,29.33a11,11,0,1,1,7.78-3.22h0A10.94,10.94,0,0,1,45.46,29.33Zm0-20A9,9,0,1,0,51.83,24.7h0A9,9,0,0,0,45.46,9.34Z"/>
<path d="M35.56,34.89h0a1,1,0,0,1-.7-.29L29.2,28.94a1,1,0,0,1,0-1.41l5.66-5.66a1,1,0,0,1,1.41,0l5.66,5.66a1,1,0,0,1,.29.7,1,1,0,0,1-.29.71L36.27,34.6A1,1,0,0,1,35.56,34.89Zm-4.24-6.66,4.24,4.25,4.25-4.25L35.56,24Z"/>
<path d="M16.12,50.8a1,1,0,0,1-.71-.29l-2.12-2.12a1,1,0,0,1,0-1.42l2.12-2.12a1,1,0,0,1,1.42,0L19,47a1,1,0,0,1,0,1.42l-2.12,2.12A1,1,0,0,1,16.12,50.8Zm-.71-3.12.71.71.71-.71L16.12,47Z"/>
<path d="M17.45,56.86a2.65,2.65,0,0,1-1.81-.7c-2-1.79-1.66-6.57-1.58-7.51a1,1,0,0,1,1.09-.91,1,1,0,0,1,.9,1.09c-.17,1.93,0,5,.93,5.85a.73.73,0,0,0,.71.15c3.3-.66,7.38-3.36,7.42-3.39,1-.78,4.73-3.39,6.68-2.78A1.82,1.82,0,0,1,33,49.84a1,1,0,0,1-1.87.71c-.68-.06-2.93,1.09-4.85,2.53-.22.15-4.49,3-8.18,3.71A3.47,3.47,0,0,1,17.45,56.86Z"/>
</g>
</svg>