<?xml version="1.0" encoding="iso-8859-1"?>
<!-- Uploaded to: SVG Repo, www.svgrepo.com, Generator: SVG Repo Mixer Tools -->
<svg fill="#000000" version="1.1" id="Capa_1" xmlns="http://www.w3.org/2000/svg" xmlns:xlink="http://www.w3.org/1999/xlink" 
	 viewBox="0 0 60 60" xml:space="preserve">
<g>
	<g>
		<path d="M56,0H4C3.4,0,3,0.4,3,1v54v4c0,0.6,0.4,1,1,1h4c0.6,0,1-0.4,1-1v-3h42v3c0,0.6,0.4,1,1,1h4c0.6,0,1-0.4,1-1v-4V1
			C57,0.4,56.6,0,56,0z M8,54H5V44h50v10h-3H8z M55,42H31V2h24V42z M29,2v40H5V2H29z M7,58H5v-2h2V58z M55,58h-2v-2h2V58z"/>
		<rect x="29" y="46" width="2" height="6"/>
		<rect x="34" y="48" width="2" height="2"/>
		<rect x="24" y="48" width="2" height="2"/>
		<rect x="34" y="16" width="2" height="10"/>
		<rect x="24" y="16" width="2" height="10"/>
		<rect x="7" y="4" width="2" height="2"/>
		<rect x="7" y="38" width="2" height="2"/>
		<rect x="51" y="38" width="2" height="2"/>
		<rect x="51" y="4" width="2" height="2"/>
	</g>
</g>
</svg>